<svg width="576" height="100" viewBox="0 0 576 100" fill="none" xmlns="http://www.w3.org/2000/svg">
<path d="M175.058 62.0419C175.058 69.6335 167.989 75.1309 158.042 75.1309H134.743V28.0105H157.256C166.942 28.0105 173.749 33.2461 173.749 40.576C173.749 45.5498 171.131 48.6911 167.204 50.5236C171.393 52.0943 175.058 56.2828 175.058 62.0419ZM144.953 36.6493V46.8587H156.995C160.66 46.8587 163.016 44.7644 163.016 41.8849C163.016 39.0053 160.398 36.6493 156.995 36.6493H144.953ZM158.042 66.4922C161.969 66.4922 164.848 64.1362 164.848 60.733C164.848 57.3299 162.23 54.9739 158.042 54.9739H144.953V66.4922H158.042Z" fill="white"/>
<path d="M213.539 74.8691L197.309 56.2828H194.691V74.8691H184.22V28.0105H194.691V46.0733H197.309L213.016 28.0105H225.319L205.686 50.5236L227.152 74.8691H213.539Z" fill="white"/>
<path d="M227.152 51.5709C227.152 37.4348 237.623 27.2253 252.283 27.2253C266.943 27.2253 277.414 37.4348 277.414 51.5709C277.414 65.707 266.943 75.9164 252.283 75.9164C237.623 75.9164 227.152 65.707 227.152 51.5709ZM266.419 51.5709C266.419 42.6704 260.66 36.6494 252.283 36.6494C243.906 36.6494 238.147 42.6704 238.147 51.5709C238.147 60.4714 243.906 66.4924 252.283 66.4924C260.66 66.4924 266.419 60.4714 266.419 51.5709Z" fill="white"/>
<path d="M317.466 28.0105H327.937V74.8691H317.466V56.021H296.524V74.8691H286.052V28.0105H296.524V46.5969H317.466V28.0105Z" fill="white"/>
<path d="M350.45 74.8691V37.4346H334.22V28.0105H376.89V37.4346H360.66V74.8691H350.45Z" fill="white"/>
<path d="M421.916 48.6913V74.8693H414.325L412.23 67.5395C409.874 71.4662 404.901 75.9164 397.309 75.9164C387.885 75.9164 381.078 69.6337 381.078 60.995C381.078 52.3562 387.885 46.3353 401.759 46.3353H411.969C411.445 40.3143 408.304 36.1259 402.544 36.1259C397.832 36.1259 394.691 38.7437 393.12 41.6232L383.696 40.0526C386.052 31.9374 394.168 27.2253 403.068 27.2253C414.586 27.2253 421.916 35.0787 421.916 48.6913ZM411.707 54.4505H402.021C394.167 54.4505 391.55 57.0683 391.55 60.4714C391.55 64.3981 394.691 67.0159 399.927 67.0159C406.733 67.0159 411.707 62.0421 411.707 54.4505Z" fill="white"/>
<path d="M462.23 74.8691L446 56.2828H443.382V74.8691H432.911V28.0105H443.382V46.0733H446L461.707 28.0105H474.01L454.377 50.5236L475.843 74.8691H462.23Z" fill="white"/>
<path d="M494.691 74.8691V37.4346H478.461V28.0105H521.131V37.4346H504.901V74.8691H494.691Z" fill="white"/>
<path d="M573.487 54.4505H535.791C536.838 61.7803 542.073 66.4924 549.927 66.4924C555.424 66.4924 559.613 64.1363 561.969 60.7332L571.654 62.3039C568.251 71.2044 559.089 75.9164 549.141 75.9164C535.005 75.9164 524.796 65.707 524.796 51.5709C524.796 37.4348 535.005 27.2253 549.141 27.2253C563.277 27.2253 573.487 37.4348 573.487 51.0473C573.749 52.3562 573.487 53.4034 573.487 54.4505ZM536.576 46.3353H562.492C560.66 40.5761 555.948 36.3876 549.403 36.3876C543.12 36.1259 538.147 40.3143 536.576 46.3353Z" fill="white"/>
<path fill-rule="evenodd" clip-rule="evenodd" d="M8.26491 7.02944C1.23547 14.0589 1.23547 25.3726 1.23547 48V52C1.23547 74.6274 1.23547 85.9411 8.26491 92.9706C15.2943 100 26.6081 100 49.2355 100H53.2355C75.8629 100 87.1766 100 94.206 92.9706C101.235 85.9411 101.235 74.6274 101.235 52V48C101.235 25.3726 101.235 14.0589 94.206 7.02944C87.1766 0 75.8629 0 53.2355 0H49.2355C26.6081 0 15.2943 0 8.26491 7.02944ZM18.1106 30.4169C18.6523 56.4169 31.6522 72.0418 54.4438 72.0418H55.7357V57.1668C64.1107 58.0001 70.4436 64.1252 72.9853 72.0418H84.819C81.569 60.2085 73.0269 53.6668 67.6936 51.1668C73.0269 48.0835 80.5269 40.5835 82.3186 30.4169H71.5683C69.2349 38.6669 62.3191 46.1668 55.7357 46.8751V30.4169H44.9854V59.2501C38.3188 57.5835 29.9023 49.5002 29.5273 30.4169H18.1106Z" fill="white"/>
</svg>
